<?xml version="1.0" encoding="utf-8"?>
<!-- Generator: Adobe Illustrator 21.0.2, SVG Export Plug-In . SVG Version: 6.00 Build 0)  -->
<svg version="1.1" id="Layer_1" xmlns="http://www.w3.org/2000/svg" xmlns:xlink="http://www.w3.org/1999/xlink" x="0px" y="0px"
	 viewBox="0 0 62.8 61.3" style="enable-background:new 0 0 62.8 61.3;" xml:space="preserve">
<style type="text/css">
	.st0{fill:#77CED8;}
	.st1{fill:#FDFEFE;}
	.st2{fill:#FEFEFF;}
</style>
<g>
	<path class="st0" d="M2,30.7C2.1,14.6,15.2,1.4,31.1,1.3C47.3,1.2,61.2,15,61.1,31C61,47.5,47.7,60.4,30.9,60.3
		C14.2,60.3,1.9,47.7,2,30.7z"/>
	<path class="st1" d="M31.9,11.7c5.4,0.3,10,2.4,13.7,6.3c1.9,2,1.7,3.6-0.1,5.5c-5.2,5.7-8.5,6.2-15.3,2.4
		c-2.1-1.2-4.1-1.1-6.2-0.2c-1.5,0.7-3,1.5-4.5,2.1c-2.2,0.8-3.9-0.5-5.4-1.8c-1.7-1.6-0.2-3.1,0.5-4.5
		C17.9,15.5,25.4,11.3,31.9,11.7z"/>
	<path class="st2" d="M33.1,50.3c-7.4,0.1-12-2.4-16-6.5c-1.8-1.8-1.7-3.2,0-5.1c5.5-6.1,8.7-6.8,15.3-2.7c2.2,1.4,4.2,1.6,6.5,0.4
		c1.6-0.8,3.3-1.6,5-2.1c1.9-0.5,3.6,0.3,4.8,1.9c1.2,1.5,0.2,2.9-0.5,4.1C44.6,47,38.8,49.8,33.1,50.3z"/>
</g>
</svg>
